<svg width="590" height="590" viewBox="0 0 590 590" fill="none" xmlns="http://www.w3.org/2000/svg">
<circle cx="295" cy="295" r="293.5" fill="#F8F6F4" stroke="#D7D1C3" stroke-width="3"/>
<circle cx="342.181" cy="266.882" r="238.694" fill="white" stroke="#D7D1C3" stroke-width="3"/>
<circle cx="376.018" cy="238.764" r="194.372" fill="#F8F6F4" stroke="#D7D1C3" stroke-width="3"/>
<circle cx="410.331" cy="207.31" r="148.621" fill="white" stroke="#D7D1C3" stroke-width="3"/>
<circle cx="432.5" cy="183.5" r="118" fill="#F8F6F4" stroke="#D7D1C3" stroke-width="3"/>
<path d="M343.35 194.5H344.46V205H343.35V194.5ZM347.009 194.5H348.059L353.879 203.245V194.5H354.959V205H353.909L348.089 196.315V205H347.009V194.5ZM357.365 194.5H364.265V195.49H358.475V199.33H363.71V200.32H358.475V205H357.365V194.5ZM368.925 205.12C368.235 205.12 367.625 204.965 367.095 204.655C366.565 204.345 366.15 203.905 365.85 203.335C365.56 202.765 365.415 202.105 365.415 201.355V198.145C365.415 197.395 365.56 196.735 365.85 196.165C366.15 195.595 366.565 195.155 367.095 194.845C367.625 194.535 368.24 194.38 368.94 194.38H370.53C371.23 194.38 371.845 194.535 372.375 194.845C372.905 195.155 373.315 195.595 373.605 196.165C373.905 196.735 374.055 197.395 374.055 198.145V201.355C374.055 202.105 373.905 202.765 373.605 203.335C373.315 203.895 372.9 204.335 372.36 204.655C371.83 204.965 371.22 205.12 370.53 205.12H368.925ZM370.5 204.13C371.23 204.13 371.82 203.875 372.27 203.365C372.72 202.855 372.945 202.185 372.945 201.355V198.145C372.945 197.315 372.72 196.645 372.27 196.135C371.82 195.625 371.23 195.37 370.5 195.37H368.97C368.24 195.37 367.65 195.625 367.2 196.135C366.75 196.645 366.525 197.315 366.525 198.145V201.355C366.525 202.185 366.745 202.855 367.185 203.365C367.635 203.875 368.225 204.13 368.955 204.13H370.5ZM376.159 194.5H381.259C382.029 194.5 382.644 194.72 383.104 195.16C383.574 195.59 383.809 196.16 383.809 196.87V197.965C383.809 198.495 383.639 198.965 383.299 199.375C382.959 199.775 382.504 200.06 381.934 200.23V200.245C382.234 200.405 382.504 200.66 382.744 201.01C382.994 201.36 383.184 201.755 383.314 202.195L384.139 205H382.999L382.174 202.195C382.034 201.705 381.789 201.31 381.439 201.01C381.099 200.71 380.724 200.56 380.314 200.56H377.269V205H376.159V194.5ZM380.869 199.57C381.419 199.57 381.859 199.425 382.189 199.135C382.529 198.835 382.699 198.445 382.699 197.965V196.81C382.699 196.41 382.564 196.09 382.294 195.85C382.024 195.61 381.669 195.49 381.229 195.49H377.269V199.57H380.869ZM385.915 194.5H386.98L390.73 201.475L394.375 194.5H395.44V205H394.345V196.57L391.315 202.33C391.205 202.53 391.11 202.67 391.03 202.75C390.95 202.82 390.86 202.855 390.76 202.855H390.43L387.01 196.57V205H385.915V194.5ZM403.794 202.09H399.189L398.109 205H396.969L401.004 194.5H401.514C401.844 194.5 402.084 194.7 402.234 195.1L404.544 201.16H404.559V201.19L406.014 205H404.874L403.794 202.09ZM399.534 201.16H403.449L401.499 195.94H401.484L399.534 201.16ZM408.636 195.46H405.306V194.5H413.076V195.46H409.746V205H408.636V195.46ZM414.878 194.5H415.988V205H414.878V194.5ZM421.747 205.12C421.057 205.12 420.447 204.965 419.917 204.655C419.387 204.345 418.972 203.905 418.672 203.335C418.382 202.765 418.237 202.105 418.237 201.355V198.145C418.237 197.395 418.382 196.735 418.672 196.165C418.972 195.595 419.387 195.155 419.917 194.845C420.447 194.535 421.062 194.38 421.762 194.38H423.352C424.052 194.38 424.667 194.535 425.197 194.845C425.727 195.155 426.137 195.595 426.427 196.165C426.727 196.735 426.877 197.395 426.877 198.145V201.355C426.877 202.105 426.727 202.765 426.427 203.335C426.137 203.895 425.722 204.335 425.182 204.655C424.652 204.965 424.042 205.12 423.352 205.12H421.747ZM423.322 204.13C424.052 204.13 424.642 203.875 425.092 203.365C425.542 202.855 425.767 202.185 425.767 201.355V198.145C425.767 197.315 425.542 196.645 425.092 196.135C424.642 195.625 424.052 195.37 423.322 195.37H421.792C421.062 195.37 420.472 195.625 420.022 196.135C419.572 196.645 419.347 197.315 419.347 198.145V201.355C419.347 202.185 419.567 202.855 420.007 203.365C420.457 203.875 421.047 204.13 421.777 204.13H423.322ZM428.981 194.5H430.031L435.851 203.245V194.5H436.931V205H435.881L430.061 196.315V205H428.981V194.5ZM450.119 205L449.234 203.92C448.874 204.31 448.459 204.61 447.989 204.82C447.529 205.02 447.029 205.12 446.489 205.12H445.709C444.859 205.12 444.174 204.895 443.654 204.445C443.134 203.995 442.874 203.405 442.874 202.675V202.06C442.874 201.58 442.974 201.165 443.174 200.815C443.384 200.465 443.654 200.165 443.984 199.915C444.324 199.665 444.764 199.39 445.304 199.09L444.929 198.595C444.439 197.945 444.194 197.355 444.194 196.825V196.525C444.194 195.865 444.409 195.345 444.839 194.965C445.269 194.575 445.844 194.38 446.564 194.38H447.164C447.814 194.38 448.334 194.57 448.724 194.95C449.124 195.33 449.324 195.83 449.324 196.45V196.75C449.324 197.1 449.254 197.405 449.114 197.665C448.984 197.915 448.764 198.16 448.454 198.4C448.144 198.64 447.694 198.92 447.104 199.24L446.804 199.405L449.129 202.24C449.389 201.67 449.549 201.035 449.609 200.335H450.599C450.539 201.395 450.284 202.315 449.834 203.095L451.409 205H450.119ZM445.214 196.81C445.214 197.2 445.379 197.615 445.709 198.055L446.204 198.715L446.519 198.535C447.009 198.255 447.379 198.025 447.629 197.845C447.879 197.655 448.054 197.48 448.154 197.32C448.254 197.15 448.304 196.96 448.304 196.75V196.45C448.304 196.11 448.194 195.835 447.974 195.625C447.764 195.415 447.494 195.31 447.164 195.31H446.564C446.144 195.31 445.814 195.415 445.574 195.625C445.334 195.835 445.214 196.135 445.214 196.525V196.81ZM446.489 204.16C446.899 204.16 447.284 204.07 447.644 203.89C448.004 203.71 448.319 203.455 448.589 203.125L445.919 199.855C445.469 200.095 445.109 200.31 444.839 200.5C444.569 200.69 444.354 200.91 444.194 201.16C444.034 201.41 443.954 201.71 443.954 202.06V202.675C443.954 203.115 444.114 203.475 444.434 203.755C444.764 204.025 445.189 204.16 445.709 204.16H446.489ZM459.423 195.46H456.093V194.5H463.863V195.46H460.533V205H459.423V195.46ZM466.489 205C466.179 205 465.939 204.915 465.769 204.745C465.599 204.565 465.514 204.32 465.514 204.01V194.5H472.564V195.46H466.624V199.15H472.114V200.11H466.624V204.04H472.564V205H466.489ZM477.526 205.12C476.856 205.12 476.261 204.96 475.741 204.64C475.231 204.32 474.831 203.875 474.541 203.305C474.261 202.725 474.121 202.06 474.121 201.31V198.19C474.121 197.44 474.261 196.775 474.541 196.195C474.831 195.615 475.236 195.17 475.756 194.86C476.286 194.54 476.896 194.38 477.586 194.38H479.176C479.826 194.38 480.396 194.52 480.886 194.8C481.386 195.08 481.771 195.475 482.041 195.985C482.321 196.495 482.461 197.08 482.461 197.74H481.381C481.381 197.03 481.176 196.46 480.766 196.03C480.366 195.59 479.836 195.37 479.176 195.37H477.586C476.876 195.37 476.306 195.63 475.876 196.15C475.446 196.66 475.231 197.34 475.231 198.19V201.31C475.231 202.16 475.441 202.845 475.861 203.365C476.281 203.875 476.836 204.13 477.526 204.13H479.146C479.826 204.13 480.371 203.89 480.781 203.41C481.201 202.93 481.411 202.3 481.411 201.52H482.491C482.491 202.23 482.351 202.86 482.071 203.41C481.791 203.95 481.396 204.37 480.886 204.67C480.386 204.97 479.806 205.12 479.146 205.12H477.526ZM484.323 194.5H485.433V199.21H491.223V194.5H492.333V205H491.223V200.2H485.433V205H484.323V194.5ZM494.738 194.5H495.788L501.608 203.245V194.5H502.688V205H501.638L495.818 196.315V205H494.738V194.5ZM508.305 205.12C507.615 205.12 507.005 204.965 506.475 204.655C505.945 204.345 505.53 203.905 505.23 203.335C504.94 202.765 504.795 202.105 504.795 201.355V198.145C504.795 197.395 504.94 196.735 505.23 196.165C505.53 195.595 505.945 195.155 506.475 194.845C507.005 194.535 507.62 194.38 508.32 194.38H509.91C510.61 194.38 511.225 194.535 511.755 194.845C512.285 195.155 512.695 195.595 512.985 196.165C513.285 196.735 513.435 197.395 513.435 198.145V201.355C513.435 202.105 513.285 202.765 512.985 203.335C512.695 203.895 512.28 204.335 511.74 204.655C511.21 204.965 510.6 205.12 509.91 205.12H508.305ZM509.88 204.13C510.61 204.13 511.2 203.875 511.65 203.365C512.1 202.855 512.325 202.185 512.325 201.355V198.145C512.325 197.315 512.1 196.645 511.65 196.135C511.2 195.625 510.61 195.37 509.88 195.37H508.35C507.62 195.37 507.03 195.625 506.58 196.135C506.13 196.645 505.905 197.315 505.905 198.145V201.355C505.905 202.185 506.125 202.855 506.565 203.365C507.015 203.875 507.605 204.13 508.335 204.13H509.88ZM516.514 205C516.204 205 515.964 204.915 515.794 204.745C515.624 204.575 515.539 204.335 515.539 204.025V194.5H516.649V204.01H522.349V205H516.514ZM526.747 205.12C526.057 205.12 525.447 204.965 524.917 204.655C524.387 204.345 523.972 203.905 523.672 203.335C523.382 202.765 523.237 202.105 523.237 201.355V198.145C523.237 197.395 523.382 196.735 523.672 196.165C523.972 195.595 524.387 195.155 524.917 194.845C525.447 194.535 526.062 194.38 526.762 194.38H528.352C529.052 194.38 529.667 194.535 530.197 194.845C530.727 195.155 531.137 195.595 531.427 196.165C531.727 196.735 531.877 197.395 531.877 198.145V201.355C531.877 202.105 531.727 202.765 531.427 203.335C531.137 203.895 530.722 204.335 530.182 204.655C529.652 204.965 529.042 205.12 528.352 205.12H526.747ZM528.322 204.13C529.052 204.13 529.642 203.875 530.092 203.365C530.542 202.855 530.767 202.185 530.767 201.355V198.145C530.767 197.315 530.542 196.645 530.092 196.135C529.642 195.625 529.052 195.37 528.322 195.37H526.792C526.062 195.37 525.472 195.625 525.022 196.135C524.572 196.645 524.347 197.315 524.347 198.145V201.355C524.347 202.185 524.567 202.855 525.007 203.365C525.457 203.875 526.047 204.13 526.777 204.13H528.322ZM537.116 205.12C536.426 205.12 535.821 204.965 535.301 204.655C534.791 204.335 534.391 203.885 534.101 203.305C533.821 202.725 533.681 202.06 533.681 201.31V198.19C533.681 197.44 533.826 196.78 534.116 196.21C534.416 195.63 534.831 195.18 535.361 194.86C535.891 194.54 536.501 194.38 537.191 194.38H538.781C539.441 194.38 540.021 194.52 540.521 194.8C541.031 195.08 541.426 195.475 541.706 195.985C541.986 196.495 542.126 197.08 542.126 197.74H541.046C541.046 197.03 540.836 196.46 540.416 196.03C540.006 195.59 539.461 195.37 538.781 195.37H537.191C536.471 195.37 535.891 195.63 535.451 196.15C535.011 196.66 534.791 197.34 534.791 198.19V201.31C534.791 202.16 535.001 202.845 535.421 203.365C535.851 203.875 536.416 204.13 537.116 204.13H538.736C539.446 204.13 540.021 203.885 540.461 203.395C540.901 202.905 541.121 202.26 541.121 201.46V200.56H538.211V199.585H542.201V201.46C542.201 202.18 542.056 202.82 541.766 203.38C541.486 203.93 541.081 204.36 540.551 204.67C540.031 204.97 539.426 205.12 538.736 205.12H537.116ZM546.691 200.965L542.821 194.5H544.021L547.246 199.96L550.471 194.5H551.671L547.801 200.965V205H546.691V200.965Z" fill="black"/>
<path d="M31.33 295.48L30.175 294.34C29.525 294.86 28.775 295.12 27.925 295.12H26.365C25.675 295.12 25.065 294.965 24.535 294.655C24.015 294.345 23.61 293.905 23.32 293.335C23.04 292.765 22.9 292.105 22.9 291.355V288.145C22.9 287.395 23.045 286.74 23.335 286.18C23.635 285.61 24.055 285.17 24.595 284.86C25.135 284.54 25.75 284.38 26.44 284.38H28.03C28.72 284.38 29.33 284.535 29.86 284.845C30.39 285.155 30.8 285.595 31.09 286.165C31.39 286.735 31.54 287.395 31.54 288.145V291.325C31.54 292.195 31.31 292.955 30.85 293.605L32.02 294.76L31.33 295.48ZM27.895 294.13C28.495 294.13 29.01 293.955 29.44 293.605L27.91 292.105L28.6 291.385L30.07 292.84C30.31 292.39 30.43 291.885 30.43 291.325V288.145C30.43 287.315 30.205 286.645 29.755 286.135C29.315 285.625 28.73 285.37 28 285.37H26.47C25.74 285.37 25.145 285.625 24.685 286.135C24.235 286.645 24.01 287.315 24.01 288.145V291.355C24.01 292.195 24.225 292.87 24.655 293.38C25.095 293.88 25.675 294.13 26.395 294.13H27.895ZM36.8829 295.12C36.2429 295.12 35.6779 294.98 35.1879 294.7C34.6979 294.41 34.3179 294.005 34.0479 293.485C33.7779 292.955 33.6429 292.35 33.6429 291.67V284.5H34.7529V291.7C34.7529 292.43 34.9479 293.02 35.3379 293.47C35.7279 293.91 36.2429 294.13 36.8829 294.13H38.5029C39.1429 294.13 39.6579 293.91 40.0479 293.47C40.4379 293.02 40.6329 292.43 40.6329 291.7V284.5H41.7429V291.67C41.7429 292.35 41.6079 292.955 41.3379 293.485C41.0679 294.005 40.6879 294.41 40.1979 294.7C39.7079 294.98 39.1429 295.12 38.5029 295.12H36.8829ZM49.6482 292.09H45.0432L43.9632 295H42.8232L46.8582 284.5H47.3682C47.6982 284.5 47.9382 284.7 48.0882 285.1L50.3982 291.16H50.4132V291.19L51.8682 295H50.7282L49.6482 292.09ZM45.3882 291.16H49.3032L47.3532 285.94H47.3382L45.3882 291.16ZM54.2922 295C53.9822 295 53.7422 294.915 53.5722 294.745C53.4022 294.575 53.3172 294.335 53.3172 294.025V284.5H54.4272V294.01H60.1272V295H54.2922ZM61.8607 284.5H62.9707V295H61.8607V284.5ZM68.0993 285.46H64.7693V284.5H72.5393V285.46H69.2093V295H68.0993V285.46ZM77.1012 290.965L73.2312 284.5H74.4312L77.6562 289.96L80.8812 284.5H82.0812L78.2112 290.965V295H77.1012V290.965ZM94.3038 295L93.4188 293.92C93.0588 294.31 92.6438 294.61 92.1738 294.82C91.7138 295.02 91.2138 295.12 90.6738 295.12H89.8938C89.0438 295.12 88.3588 294.895 87.8388 294.445C87.3188 293.995 87.0588 293.405 87.0588 292.675V292.06C87.0588 291.58 87.1588 291.165 87.3588 290.815C87.5688 290.465 87.8388 290.165 88.1688 289.915C88.5088 289.665 88.9488 289.39 89.4888 289.09L89.1138 288.595C88.6238 287.945 88.3788 287.355 88.3788 286.825V286.525C88.3788 285.865 88.5938 285.345 89.0238 284.965C89.4538 284.575 90.0288 284.38 90.7488 284.38H91.3488C91.9988 284.38 92.5188 284.57 92.9088 284.95C93.3088 285.33 93.5088 285.83 93.5088 286.45V286.75C93.5088 287.1 93.4388 287.405 93.2988 287.665C93.1688 287.915 92.9488 288.16 92.6388 288.4C92.3288 288.64 91.8788 288.92 91.2888 289.24L90.9888 289.405L93.3138 292.24C93.5738 291.67 93.7338 291.035 93.7937 290.335H94.7838C94.7238 291.395 94.4688 292.315 94.0188 293.095L95.5938 295H94.3038ZM89.3988 286.81C89.3988 287.2 89.5638 287.615 89.8938 288.055L90.3888 288.715L90.7038 288.535C91.1938 288.255 91.5638 288.025 91.8138 287.845C92.0638 287.655 92.2388 287.48 92.3388 287.32C92.4388 287.15 92.4888 286.96 92.4888 286.75V286.45C92.4888 286.11 92.3788 285.835 92.1588 285.625C91.9488 285.415 91.6788 285.31 91.3488 285.31H90.7488C90.3288 285.31 89.9988 285.415 89.7588 285.625C89.5188 285.835 89.3988 286.135 89.3988 286.525V286.81ZM90.6738 294.16C91.0838 294.16 91.4688 294.07 91.8288 293.89C92.1888 293.71 92.5038 293.455 92.7738 293.125L90.1038 289.855C89.6538 290.095 89.2938 290.31 89.0238 290.5C88.7538 290.69 88.5388 290.91 88.3788 291.16C88.2188 291.41 88.1388 291.71 88.1388 292.06V292.675C88.1388 293.115 88.2988 293.475 88.6188 293.755C88.9488 294.025 89.3738 294.16 89.8938 294.16H90.6738ZM101.027 284.5H106.127C106.897 284.5 107.512 284.72 107.972 285.16C108.442 285.59 108.677 286.16 108.677 286.87V287.965C108.677 288.495 108.507 288.965 108.167 289.375C107.827 289.775 107.372 290.06 106.802 290.23V290.245C107.102 290.405 107.372 290.66 107.612 291.01C107.862 291.36 108.052 291.755 108.182 292.195L109.007 295H107.867L107.042 292.195C106.902 291.705 106.657 291.31 106.307 291.01C105.967 290.71 105.592 290.56 105.182 290.56H102.137V295H101.027V284.5ZM105.737 289.57C106.287 289.57 106.727 289.425 107.057 289.135C107.397 288.835 107.567 288.445 107.567 287.965V286.81C107.567 286.41 107.432 286.09 107.162 285.85C106.892 285.61 106.537 285.49 106.097 285.49H102.137V289.57H105.737ZM111.758 295C111.448 295 111.208 294.915 111.038 294.745C110.868 294.565 110.783 294.32 110.783 294.01V284.5H117.833V285.46H111.893V289.15H117.383V290.11H111.893V294.04H117.833V295H111.758ZM120.752 295C120.442 295 120.202 294.915 120.032 294.745C119.862 294.575 119.777 294.335 119.777 294.025V284.5H120.887V294.01H126.587V295H120.752ZM128.321 284.5H129.431V295H128.321V284.5ZM137.934 292.09H133.329L132.249 295H131.109L135.144 284.5H135.654C135.984 284.5 136.224 284.7 136.374 285.1L138.684 291.16H138.699V291.19L140.154 295H139.014L137.934 292.09ZM133.674 291.16H137.589L135.639 285.94H135.624L133.674 291.16ZM142.578 295C142.288 295 142.053 294.91 141.873 294.73C141.693 294.55 141.603 294.315 141.603 294.025V284.5H146.043C146.933 284.5 147.648 284.715 148.188 285.145C148.738 285.565 149.013 286.125 149.013 286.825V287.62C149.013 287.99 148.928 288.345 148.758 288.685C148.588 289.015 148.353 289.28 148.053 289.48V289.495C148.543 289.625 148.933 289.88 149.223 290.26C149.523 290.63 149.673 291.065 149.673 291.565V292.285C149.673 293.105 149.413 293.765 148.893 294.265C148.373 294.755 147.668 295 146.778 295H142.578ZM146.343 289.24C146.813 289.24 147.188 289.095 147.468 288.805C147.758 288.505 147.903 288.11 147.903 287.62V286.825C147.903 286.425 147.728 286.105 147.378 285.865C147.038 285.615 146.593 285.49 146.043 285.49H142.713V289.24H146.343ZM146.628 294.01C147.228 294.01 147.698 293.855 148.038 293.545C148.388 293.225 148.563 292.805 148.563 292.285V291.565C148.563 291.145 148.413 290.81 148.113 290.56C147.813 290.3 147.418 290.17 146.928 290.17H142.713V294.01H146.628ZM151.685 284.5H152.795V295H151.685V284.5ZM156.319 295C156.009 295 155.769 294.915 155.599 294.745C155.429 294.575 155.344 294.335 155.344 294.025V284.5H156.454V294.01H162.154V295H156.319ZM163.887 284.5H164.997V295H163.887V284.5ZM170.126 285.46H166.796V284.5H174.566V285.46H171.236V295H170.126V285.46ZM179.128 290.965L175.258 284.5H176.458L179.683 289.96L182.908 284.5H184.108L180.238 290.965V295H179.128V290.965Z" fill="black"/>
<path d="M190.305 449.12C189.635 449.12 189.04 448.96 188.52 448.64C188.01 448.32 187.61 447.875 187.32 447.305C187.04 446.725 186.9 446.06 186.9 445.31V442.19C186.9 441.44 187.04 440.775 187.32 440.195C187.61 439.615 188.015 439.17 188.535 438.86C189.065 438.54 189.675 438.38 190.365 438.38H191.955C192.605 438.38 193.175 438.52 193.665 438.8C194.165 439.08 194.55 439.475 194.82 439.985C195.1 440.495 195.24 441.08 195.24 441.74H194.16C194.16 441.03 193.955 440.46 193.545 440.03C193.145 439.59 192.615 439.37 191.955 439.37H190.365C189.655 439.37 189.085 439.63 188.655 440.15C188.225 440.66 188.01 441.34 188.01 442.19V445.31C188.01 446.16 188.22 446.845 188.64 447.365C189.06 447.875 189.615 448.13 190.305 448.13H191.925C192.605 448.13 193.15 447.89 193.56 447.41C193.98 446.93 194.19 446.3 194.19 445.52H195.27C195.27 446.23 195.13 446.86 194.85 447.41C194.57 447.95 194.175 448.37 193.665 448.67C193.165 448.97 192.585 449.12 191.925 449.12H190.305ZM200.282 449.12C199.642 449.12 199.077 448.98 198.587 448.7C198.097 448.41 197.717 448.005 197.447 447.485C197.177 446.955 197.042 446.35 197.042 445.67V438.5H198.152V445.7C198.152 446.43 198.347 447.02 198.737 447.47C199.127 447.91 199.642 448.13 200.282 448.13H201.902C202.542 448.13 203.057 447.91 203.447 447.47C203.837 447.02 204.032 446.43 204.032 445.7V438.5H205.142V445.67C205.142 446.35 205.007 446.955 204.737 447.485C204.467 448.005 204.087 448.41 203.597 448.7C203.107 448.98 202.542 449.12 201.902 449.12H200.282ZM210.173 449.12C209.573 449.12 209.043 448.995 208.583 448.745C208.123 448.485 207.763 448.125 207.503 447.665C207.253 447.195 207.128 446.655 207.128 446.045H208.208C208.208 446.665 208.388 447.17 208.748 447.56C209.118 447.94 209.603 448.13 210.203 448.13H211.868C212.458 448.13 212.933 448 213.293 447.74C213.653 447.47 213.833 447.12 213.833 446.69V445.73C213.833 445.39 213.698 445.1 213.428 444.86C213.168 444.62 212.808 444.465 212.348 444.395L209.648 443.945C208.888 443.815 208.298 443.545 207.878 443.135C207.458 442.725 207.248 442.21 207.248 441.59V440.78C207.248 440.05 207.518 439.47 208.058 439.04C208.608 438.6 209.333 438.38 210.233 438.38H211.928C212.778 438.38 213.463 438.64 213.983 439.16C214.503 439.67 214.763 440.345 214.763 441.185H213.683C213.683 440.635 213.523 440.195 213.203 439.865C212.883 439.535 212.458 439.37 211.928 439.37H210.233C209.663 439.37 209.208 439.5 208.868 439.76C208.528 440.01 208.358 440.35 208.358 440.78V441.59C208.358 441.94 208.483 442.235 208.733 442.475C208.993 442.715 209.348 442.875 209.798 442.955L212.483 443.42C213.263 443.56 213.868 443.83 214.298 444.23C214.728 444.62 214.943 445.12 214.943 445.73V446.69C214.943 447.42 214.663 448.01 214.103 448.46C213.543 448.9 212.808 449.12 211.898 449.12H210.173ZM219.238 439.46H215.908V438.5H223.678V439.46H220.348V449H219.238V439.46ZM228.056 449.12C227.366 449.12 226.756 448.965 226.226 448.655C225.696 448.345 225.281 447.905 224.981 447.335C224.691 446.765 224.546 446.105 224.546 445.355V442.145C224.546 441.395 224.691 440.735 224.981 440.165C225.281 439.595 225.696 439.155 226.226 438.845C226.756 438.535 227.371 438.38 228.071 438.38H229.661C230.361 438.38 230.976 438.535 231.506 438.845C232.036 439.155 232.446 439.595 232.736 440.165C233.036 440.735 233.186 441.395 233.186 442.145V445.355C233.186 446.105 233.036 446.765 232.736 447.335C232.446 447.895 232.031 448.335 231.491 448.655C230.961 448.965 230.351 449.12 229.661 449.12H228.056ZM229.631 448.13C230.361 448.13 230.951 447.875 231.401 447.365C231.851 446.855 232.076 446.185 232.076 445.355V442.145C232.076 441.315 231.851 440.645 231.401 440.135C230.951 439.625 230.361 439.37 229.631 439.37H228.101C227.371 439.37 226.781 439.625 226.331 440.135C225.881 440.645 225.656 441.315 225.656 442.145V445.355C225.656 446.185 225.876 446.855 226.316 447.365C226.766 447.875 227.356 448.13 228.086 448.13H229.631ZM235.291 438.5H236.356L240.106 445.475L243.751 438.5H244.816V449H243.721V440.57L240.691 446.33C240.581 446.53 240.486 446.67 240.406 446.75C240.326 446.82 240.236 446.855 240.136 446.855H239.806L236.386 440.57V449H235.291V438.5ZM248.19 449C247.88 449 247.64 448.915 247.47 448.745C247.3 448.565 247.215 448.32 247.215 448.01V438.5H254.265V439.46H248.325V443.15H253.815V444.11H248.325V448.04H254.265V449H248.19ZM256.209 438.5H261.309C262.079 438.5 262.694 438.72 263.154 439.16C263.624 439.59 263.859 440.16 263.859 440.87V441.965C263.859 442.495 263.689 442.965 263.349 443.375C263.009 443.775 262.554 444.06 261.984 444.23V444.245C262.284 444.405 262.554 444.66 262.794 445.01C263.044 445.36 263.234 445.755 263.364 446.195L264.189 449H263.049L262.224 446.195C262.084 445.705 261.839 445.31 261.489 445.01C261.149 444.71 260.774 444.56 260.364 444.56H257.319V449H256.209V438.5ZM260.919 443.57C261.469 443.57 261.909 443.425 262.239 443.135C262.579 442.835 262.749 442.445 262.749 441.965V440.81C262.749 440.41 262.614 440.09 262.344 439.85C262.074 439.61 261.719 439.49 261.279 439.49H257.319V443.57H260.919ZM272.966 449.12C272.296 449.12 271.701 448.96 271.181 448.64C270.671 448.32 270.271 447.875 269.981 447.305C269.701 446.725 269.561 446.06 269.561 445.31V442.19C269.561 441.44 269.701 440.775 269.981 440.195C270.271 439.615 270.676 439.17 271.196 438.86C271.726 438.54 272.336 438.38 273.026 438.38H274.616C275.266 438.38 275.836 438.52 276.326 438.8C276.826 439.08 277.211 439.475 277.481 439.985C277.761 440.495 277.901 441.08 277.901 441.74H276.821C276.821 441.03 276.616 440.46 276.206 440.03C275.806 439.59 275.276 439.37 274.616 439.37H273.026C272.316 439.37 271.746 439.63 271.316 440.15C270.886 440.66 270.671 441.34 270.671 442.19V445.31C270.671 446.16 270.881 446.845 271.301 447.365C271.721 447.875 272.276 448.13 272.966 448.13H274.586C275.266 448.13 275.811 447.89 276.221 447.41C276.641 446.93 276.851 446.3 276.851 445.52H277.931C277.931 446.23 277.791 446.86 277.511 447.41C277.231 447.95 276.836 448.37 276.326 448.67C275.826 448.97 275.246 449.12 274.586 449.12H272.966ZM280.738 449C280.428 449 280.188 448.915 280.018 448.745C279.848 448.565 279.763 448.32 279.763 448.01V438.5H286.813V439.46H280.873V443.15H286.363V444.11H280.873V448.04H286.813V449H280.738ZM288.758 438.5H289.808L295.628 447.245V438.5H296.708V449H295.658L289.838 440.315V449H288.758V438.5ZM301.694 439.46H298.364V438.5H306.134V439.46H302.804V449H301.694V439.46ZM307.786 438.5H312.886C313.656 438.5 314.271 438.72 314.731 439.16C315.201 439.59 315.436 440.16 315.436 440.87V441.965C315.436 442.495 315.266 442.965 314.926 443.375C314.586 443.775 314.131 444.06 313.561 444.23V444.245C313.861 444.405 314.131 444.66 314.371 445.01C314.621 445.36 314.811 445.755 314.941 446.195L315.766 449H314.626L313.801 446.195C313.661 445.705 313.416 445.31 313.066 445.01C312.726 444.71 312.351 444.56 311.941 444.56H308.896V449H307.786V438.5ZM312.496 443.57C313.046 443.57 313.486 443.425 313.816 443.135C314.156 442.835 314.326 442.445 314.326 441.965V440.81C314.326 440.41 314.191 440.09 313.921 439.85C313.651 439.61 313.296 439.49 312.856 439.49H308.896V443.57H312.496ZM317.692 438.5H318.802V449H317.692V438.5ZM324.455 449.12C323.785 449.12 323.19 448.96 322.67 448.64C322.16 448.32 321.76 447.875 321.47 447.305C321.19 446.725 321.05 446.06 321.05 445.31V442.19C321.05 441.44 321.19 440.775 321.47 440.195C321.76 439.615 322.165 439.17 322.685 438.86C323.215 438.54 323.825 438.38 324.515 438.38H326.105C326.755 438.38 327.325 438.52 327.815 438.8C328.315 439.08 328.7 439.475 328.97 439.985C329.25 440.495 329.39 441.08 329.39 441.74H328.31C328.31 441.03 328.105 440.46 327.695 440.03C327.295 439.59 326.765 439.37 326.105 439.37H324.515C323.805 439.37 323.235 439.63 322.805 440.15C322.375 440.66 322.16 441.34 322.16 442.19V445.31C322.16 446.16 322.37 446.845 322.79 447.365C323.21 447.875 323.765 448.13 324.455 448.13H326.075C326.755 448.13 327.3 447.89 327.71 447.41C328.13 446.93 328.34 446.3 328.34 445.52H329.42C329.42 446.23 329.28 446.86 329 447.41C328.72 447.95 328.325 448.37 327.815 448.67C327.315 448.97 326.735 449.12 326.075 449.12H324.455ZM334.789 444.695H338.764V445.655H334.789V444.695ZM344.7 438.5H349.8C350.57 438.5 351.185 438.72 351.645 439.16C352.115 439.59 352.35 440.16 352.35 440.87V441.965C352.35 442.495 352.18 442.965 351.84 443.375C351.5 443.775 351.045 444.06 350.475 444.23V444.245C350.775 444.405 351.045 444.66 351.285 445.01C351.535 445.36 351.725 445.755 351.855 446.195L352.68 449H351.54L350.715 446.195C350.575 445.705 350.33 445.31 349.98 445.01C349.64 444.71 349.265 444.56 348.855 444.56H345.81V449H344.7V438.5ZM349.41 443.57C349.96 443.57 350.4 443.425 350.73 443.135C351.07 442.835 351.24 442.445 351.24 441.965V440.81C351.24 440.41 351.105 440.09 350.835 439.85C350.565 439.61 350.21 439.49 349.77 439.49H345.81V443.57H349.41ZM355.431 449C355.121 449 354.881 448.915 354.711 448.745C354.541 448.565 354.456 448.32 354.456 448.01V438.5H361.506V439.46H355.566V443.15H361.056V444.11H355.566V448.04H361.506V449H355.431ZM364.425 449C364.115 449 363.875 448.915 363.705 448.745C363.535 448.575 363.45 448.335 363.45 448.025V438.5H364.56V448.01H370.26V449H364.425ZM377.799 446.09H373.194L372.114 449H370.974L375.009 438.5H375.519C375.849 438.5 376.089 438.7 376.239 439.1L378.549 445.16H378.564V445.19L380.019 449H378.879L377.799 446.09ZM373.539 445.16H377.454L375.504 439.94H375.489L373.539 445.16ZM382.641 439.46H379.311V438.5H387.081V439.46H383.751V449H382.641V439.46ZM388.883 438.5H389.993V449H388.883V438.5ZM395.752 449.12C395.062 449.12 394.452 448.965 393.922 448.655C393.392 448.345 392.977 447.905 392.677 447.335C392.387 446.765 392.242 446.105 392.242 445.355V442.145C392.242 441.395 392.387 440.735 392.677 440.165C392.977 439.595 393.392 439.155 393.922 438.845C394.452 438.535 395.067 438.38 395.767 438.38H397.357C398.057 438.38 398.672 438.535 399.202 438.845C399.732 439.155 400.142 439.595 400.432 440.165C400.732 440.735 400.882 441.395 400.882 442.145V445.355C400.882 446.105 400.732 446.765 400.432 447.335C400.142 447.895 399.727 448.335 399.187 448.655C398.657 448.965 398.047 449.12 397.357 449.12H395.752ZM397.327 448.13C398.057 448.13 398.647 447.875 399.097 447.365C399.547 446.855 399.772 446.185 399.772 445.355V442.145C399.772 441.315 399.547 440.645 399.097 440.135C398.647 439.625 398.057 439.37 397.327 439.37H395.797C395.067 439.37 394.477 439.625 394.027 440.135C393.577 440.645 393.352 441.315 393.352 442.145V445.355C393.352 446.185 393.572 446.855 394.012 447.365C394.462 447.875 395.052 448.13 395.782 448.13H397.327ZM402.986 438.5H404.036L409.856 447.245V438.5H410.936V449H409.886L404.066 440.315V449H402.986V438.5ZM416.028 449.12C415.428 449.12 414.898 448.995 414.438 448.745C413.978 448.485 413.618 448.125 413.358 447.665C413.108 447.195 412.983 446.655 412.983 446.045H414.063C414.063 446.665 414.243 447.17 414.603 447.56C414.973 447.94 415.458 448.13 416.058 448.13H417.723C418.313 448.13 418.788 448 419.148 447.74C419.508 447.47 419.688 447.12 419.688 446.69V445.73C419.688 445.39 419.553 445.1 419.283 444.86C419.023 444.62 418.663 444.465 418.203 444.395L415.503 443.945C414.743 443.815 414.153 443.545 413.733 443.135C413.313 442.725 413.103 442.21 413.103 441.59V440.78C413.103 440.05 413.373 439.47 413.913 439.04C414.463 438.6 415.188 438.38 416.088 438.38H417.783C418.633 438.38 419.318 438.64 419.838 439.16C420.358 439.67 420.618 440.345 420.618 441.185H419.538C419.538 440.635 419.378 440.195 419.058 439.865C418.738 439.535 418.313 439.37 417.783 439.37H416.088C415.518 439.37 415.063 439.5 414.723 439.76C414.383 440.01 414.213 440.35 414.213 440.78V441.59C414.213 441.94 414.338 442.235 414.588 442.475C414.848 442.715 415.203 442.875 415.653 442.955L418.338 443.42C419.118 443.56 419.723 443.83 420.153 444.23C420.583 444.62 420.798 445.12 420.798 445.73V446.69C420.798 447.42 420.518 448.01 419.958 448.46C419.398 448.9 418.663 449.12 417.753 449.12H416.028ZM422.747 438.5H423.857V443.21H429.647V438.5H430.757V449H429.647V444.2H423.857V449H422.747V438.5ZM433.312 438.5H434.422V449H433.312V438.5ZM436.971 438.5H442.056C442.836 438.5 443.461 438.72 443.931 439.16C444.411 439.6 444.651 440.18 444.651 440.9V442.445C444.651 443.215 444.396 443.84 443.886 444.32C443.376 444.79 442.706 445.025 441.876 445.025H438.081V449H436.971V438.5ZM441.846 444.035C442.356 444.035 442.766 443.89 443.076 443.6C443.386 443.3 443.541 442.905 443.541 442.415V440.87C443.541 440.46 443.401 440.13 443.121 439.88C442.851 439.62 442.486 439.49 442.026 439.49H438.081V444.035H441.846Z" fill="black"/>
<path d="M152.885 559.12C152.285 559.12 151.755 558.995 151.295 558.745C150.835 558.485 150.475 558.125 150.215 557.665C149.965 557.195 149.84 556.655 149.84 556.045H150.92C150.92 556.665 151.1 557.17 151.46 557.56C151.83 557.94 152.315 558.13 152.915 558.13H154.58C155.17 558.13 155.645 558 156.005 557.74C156.365 557.47 156.545 557.12 156.545 556.69V555.73C156.545 555.39 156.41 555.1 156.14 554.86C155.88 554.62 155.52 554.465 155.06 554.395L152.36 553.945C151.6 553.815 151.01 553.545 150.59 553.135C150.17 552.725 149.96 552.21 149.96 551.59V550.78C149.96 550.05 150.23 549.47 150.77 549.04C151.32 548.6 152.045 548.38 152.945 548.38H154.64C155.49 548.38 156.175 548.64 156.695 549.16C157.215 549.67 157.475 550.345 157.475 551.185H156.395C156.395 550.635 156.235 550.195 155.915 549.865C155.595 549.535 155.17 549.37 154.64 549.37H152.945C152.375 549.37 151.92 549.5 151.58 549.76C151.24 550.01 151.07 550.35 151.07 550.78V551.59C151.07 551.94 151.195 552.235 151.445 552.475C151.705 552.715 152.06 552.875 152.51 552.955L155.195 553.42C155.975 553.56 156.58 553.83 157.01 554.23C157.44 554.62 157.655 555.12 157.655 555.73V556.69C157.655 557.42 157.375 558.01 156.815 558.46C156.255 558.9 155.52 559.12 154.61 559.12H152.885ZM162.784 559.12C162.144 559.12 161.579 558.98 161.089 558.7C160.599 558.41 160.219 558.005 159.949 557.485C159.679 556.955 159.544 556.35 159.544 555.67V548.5H160.654V555.7C160.654 556.43 160.849 557.02 161.239 557.47C161.629 557.91 162.144 558.13 162.784 558.13H164.404C165.044 558.13 165.559 557.91 165.949 557.47C166.339 557.02 166.534 556.43 166.534 555.7V548.5H167.644V555.67C167.644 556.35 167.509 556.955 167.239 557.485C166.969 558.005 166.589 558.41 166.099 558.7C165.609 558.98 165.044 559.12 164.404 559.12H162.784ZM172.675 559.12C172.075 559.12 171.545 558.995 171.085 558.745C170.625 558.485 170.265 558.125 170.005 557.665C169.755 557.195 169.63 556.655 169.63 556.045H170.71C170.71 556.665 170.89 557.17 171.25 557.56C171.62 557.94 172.105 558.13 172.705 558.13H174.37C174.96 558.13 175.435 558 175.795 557.74C176.155 557.47 176.335 557.12 176.335 556.69V555.73C176.335 555.39 176.2 555.1 175.93 554.86C175.67 554.62 175.31 554.465 174.85 554.395L172.15 553.945C171.39 553.815 170.8 553.545 170.38 553.135C169.96 552.725 169.75 552.21 169.75 551.59V550.78C169.75 550.05 170.02 549.47 170.56 549.04C171.11 548.6 171.835 548.38 172.735 548.38H174.43C175.28 548.38 175.965 548.64 176.485 549.16C177.005 549.67 177.265 550.345 177.265 551.185H176.185C176.185 550.635 176.025 550.195 175.705 549.865C175.385 549.535 174.96 549.37 174.43 549.37H172.735C172.165 549.37 171.71 549.5 171.37 549.76C171.03 550.01 170.86 550.35 170.86 550.78V551.59C170.86 551.94 170.985 552.235 171.235 552.475C171.495 552.715 171.85 552.875 172.3 552.955L174.985 553.42C175.765 553.56 176.37 553.83 176.8 554.23C177.23 554.62 177.445 555.12 177.445 555.73V556.69C177.445 557.42 177.165 558.01 176.605 558.46C176.045 558.9 175.31 559.12 174.4 559.12H172.675ZM181.74 549.46H178.41V548.5H186.18V549.46H182.85V559H181.74V549.46ZM192.293 556.09H187.688L186.608 559H185.468L189.503 548.5H190.013C190.343 548.5 190.583 548.7 190.733 549.1L193.043 555.16H193.058V555.19L194.513 559H193.373L192.293 556.09ZM188.033 555.16H191.948L189.998 549.94H189.983L188.033 555.16ZM196.2 548.5H197.31V559H196.2V548.5ZM199.858 548.5H200.908L206.728 557.245V548.5H207.808V559H206.758L200.938 550.315V559H199.858V548.5ZM216.17 556.09H211.565L210.485 559H209.345L213.38 548.5H213.89C214.22 548.5 214.46 548.7 214.61 549.1L216.92 555.16H216.935V555.19L218.39 559H217.25L216.17 556.09ZM211.91 555.16H215.825L213.875 549.94H213.86L211.91 555.16ZM220.814 559C220.524 559 220.289 558.91 220.109 558.73C219.929 558.55 219.839 558.315 219.839 558.025V548.5H224.279C225.169 548.5 225.884 548.715 226.424 549.145C226.974 549.565 227.249 550.125 227.249 550.825V551.62C227.249 551.99 227.164 552.345 226.994 552.685C226.824 553.015 226.589 553.28 226.289 553.48V553.495C226.779 553.625 227.169 553.88 227.459 554.26C227.759 554.63 227.909 555.065 227.909 555.565V556.285C227.909 557.105 227.649 557.765 227.129 558.265C226.609 558.755 225.904 559 225.014 559H220.814ZM224.579 553.24C225.049 553.24 225.424 553.095 225.704 552.805C225.994 552.505 226.139 552.11 226.139 551.62V550.825C226.139 550.425 225.964 550.105 225.614 549.865C225.274 549.615 224.829 549.49 224.279 549.49H220.949V553.24H224.579ZM224.864 558.01C225.464 558.01 225.934 557.855 226.274 557.545C226.624 557.225 226.799 556.805 226.799 556.285V555.565C226.799 555.145 226.649 554.81 226.349 554.56C226.049 554.3 225.654 554.17 225.164 554.17H220.949V558.01H224.864ZM229.92 548.5H231.03V559H229.92V548.5ZM234.554 559C234.244 559 234.004 558.915 233.834 558.745C233.664 558.575 233.579 558.335 233.579 558.025V548.5H234.689V558.01H240.389V559H234.554ZM242.122 548.5H243.232V559H242.122V548.5ZM248.361 549.46H245.031V548.5H252.801V549.46H249.471V559H248.361V549.46ZM257.363 554.965L253.493 548.5H254.693L257.918 553.96L261.143 548.5H262.343L258.473 554.965V559H257.363V554.965ZM274.565 559L273.68 557.92C273.32 558.31 272.905 558.61 272.435 558.82C271.975 559.02 271.475 559.12 270.935 559.12H270.155C269.305 559.12 268.62 558.895 268.1 558.445C267.58 557.995 267.32 557.405 267.32 556.675V556.06C267.32 555.58 267.42 555.165 267.62 554.815C267.83 554.465 268.1 554.165 268.43 553.915C268.77 553.665 269.21 553.39 269.75 553.09L269.375 552.595C268.885 551.945 268.64 551.355 268.64 550.825V550.525C268.64 549.865 268.855 549.345 269.285 548.965C269.715 548.575 270.29 548.38 271.01 548.38H271.61C272.26 548.38 272.78 548.57 273.17 548.95C273.57 549.33 273.77 549.83 273.77 550.45V550.75C273.77 551.1 273.7 551.405 273.56 551.665C273.43 551.915 273.21 552.16 272.9 552.4C272.59 552.64 272.14 552.92 271.55 553.24L271.25 553.405L273.575 556.24C273.835 555.67 273.995 555.035 274.055 554.335H275.045C274.985 555.395 274.73 556.315 274.28 557.095L275.855 559H274.565ZM269.66 550.81C269.66 551.2 269.825 551.615 270.155 552.055L270.65 552.715L270.965 552.535C271.455 552.255 271.825 552.025 272.075 551.845C272.325 551.655 272.5 551.48 272.6 551.32C272.7 551.15 272.75 550.96 272.75 550.75V550.45C272.75 550.11 272.64 549.835 272.42 549.625C272.21 549.415 271.94 549.31 271.61 549.31H271.01C270.59 549.31 270.26 549.415 270.02 549.625C269.78 549.835 269.66 550.135 269.66 550.525V550.81ZM270.935 558.16C271.345 558.16 271.73 558.07 272.09 557.89C272.45 557.71 272.765 557.455 273.035 557.125L270.365 553.855C269.915 554.095 269.555 554.31 269.285 554.5C269.015 554.69 268.8 554.91 268.64 555.16C268.48 555.41 268.4 555.71 268.4 556.06V556.675C268.4 557.115 268.56 557.475 268.88 557.755C269.21 558.025 269.635 558.16 270.155 558.16H270.935ZM283.974 559.12C283.374 559.12 282.844 558.995 282.384 558.745C281.924 558.485 281.564 558.125 281.304 557.665C281.054 557.195 280.929 556.655 280.929 556.045H282.009C282.009 556.665 282.189 557.17 282.549 557.56C282.919 557.94 283.404 558.13 284.004 558.13H285.669C286.259 558.13 286.734 558 287.094 557.74C287.454 557.47 287.634 557.12 287.634 556.69V555.73C287.634 555.39 287.499 555.1 287.229 554.86C286.969 554.62 286.609 554.465 286.149 554.395L283.449 553.945C282.689 553.815 282.099 553.545 281.679 553.135C281.259 552.725 281.049 552.21 281.049 551.59V550.78C281.049 550.05 281.319 549.47 281.859 549.04C282.409 548.6 283.134 548.38 284.034 548.38H285.729C286.579 548.38 287.264 548.64 287.784 549.16C288.304 549.67 288.564 550.345 288.564 551.185H287.484C287.484 550.635 287.324 550.195 287.004 549.865C286.684 549.535 286.259 549.37 285.729 549.37H284.034C283.464 549.37 283.009 549.5 282.669 549.76C282.329 550.01 282.159 550.35 282.159 550.78V551.59C282.159 551.94 282.284 552.235 282.534 552.475C282.794 552.715 283.149 552.875 283.599 552.955L286.284 553.42C287.064 553.56 287.669 553.83 288.099 554.23C288.529 554.62 288.744 555.12 288.744 555.73V556.69C288.744 557.42 288.464 558.01 287.904 558.46C287.344 558.9 286.609 559.12 285.699 559.12H283.974ZM296.384 556.09H291.779L290.699 559H289.559L293.594 548.5H294.104C294.434 548.5 294.674 548.7 294.824 549.1L297.134 555.16H297.149V555.19L298.604 559H297.464L296.384 556.09ZM292.124 555.16H296.039L294.089 549.94H294.074L292.124 555.16ZM300.141 548.5H307.041V549.49H301.251V553.33H306.486V554.32H301.251V559H300.141V548.5ZM309.759 559C309.449 559 309.209 558.915 309.039 558.745C308.869 558.565 308.784 558.32 308.784 558.01V548.5H315.834V549.46H309.894V553.15H315.384V554.11H309.894V558.04H315.834V559H309.759ZM320.358 549.46H317.028V548.5H324.798V549.46H321.468V559H320.358V549.46ZM329.36 554.965L325.49 548.5H326.69L329.915 553.96L333.14 548.5H334.34L330.47 554.965V559H329.36V554.965Z" fill="black"/>
<path d="M329.35 321.5H330.46V332H329.35V321.5ZM333.009 321.5H334.059L339.879 330.245V321.5H340.959V332H339.909L334.089 323.315V332H333.009V321.5ZM344.34 332C344.03 332 343.79 331.915 343.62 331.745C343.45 331.575 343.365 331.335 343.365 331.025V321.5H347.715C348.455 321.5 349.105 321.645 349.665 321.935C350.225 322.215 350.66 322.62 350.97 323.15C351.28 323.67 351.435 324.27 351.435 324.95V328.25C351.435 329.48 351.125 330.415 350.505 331.055C349.885 331.685 348.975 332 347.775 332H344.34ZM347.745 331.01C348.595 331.01 349.235 330.78 349.665 330.32C350.105 329.85 350.325 329.16 350.325 328.25V324.95C350.325 324.22 350.08 323.63 349.59 323.18C349.11 322.72 348.475 322.49 347.685 322.49H344.475V331.01H347.745ZM356.652 332.12C356.012 332.12 355.447 331.98 354.957 331.7C354.467 331.41 354.087 331.005 353.817 330.485C353.547 329.955 353.412 329.35 353.412 328.67V321.5H354.522V328.7C354.522 329.43 354.717 330.02 355.107 330.47C355.497 330.91 356.012 331.13 356.652 331.13H358.272C358.912 331.13 359.427 330.91 359.817 330.47C360.207 330.02 360.402 329.43 360.402 328.7V321.5H361.512V328.67C361.512 329.35 361.377 329.955 361.107 330.485C360.837 331.005 360.457 331.41 359.967 331.7C359.477 331.98 358.912 332.12 358.272 332.12H356.652ZM366.543 332.12C365.943 332.12 365.413 331.995 364.953 331.745C364.493 331.485 364.133 331.125 363.873 330.665C363.623 330.195 363.498 329.655 363.498 329.045H364.578C364.578 329.665 364.758 330.17 365.118 330.56C365.488 330.94 365.973 331.13 366.573 331.13H368.238C368.828 331.13 369.303 331 369.663 330.74C370.023 330.47 370.203 330.12 370.203 329.69V328.73C370.203 328.39 370.068 328.1 369.798 327.86C369.538 327.62 369.178 327.465 368.718 327.395L366.018 326.945C365.258 326.815 364.668 326.545 364.248 326.135C363.828 325.725 363.618 325.21 363.618 324.59V323.78C363.618 323.05 363.888 322.47 364.428 322.04C364.978 321.6 365.703 321.38 366.603 321.38H368.298C369.148 321.38 369.833 321.64 370.353 322.16C370.873 322.67 371.133 323.345 371.133 324.185H370.053C370.053 323.635 369.893 323.195 369.573 322.865C369.253 322.535 368.828 322.37 368.298 322.37H366.603C366.033 322.37 365.578 322.5 365.238 322.76C364.898 323.01 364.728 323.35 364.728 323.78V324.59C364.728 324.94 364.853 325.235 365.103 325.475C365.363 325.715 365.718 325.875 366.168 325.955L368.853 326.42C369.633 326.56 370.238 326.83 370.668 327.23C371.098 327.62 371.313 328.12 371.313 328.73V329.69C371.313 330.42 371.033 331.01 370.473 331.46C369.913 331.9 369.178 332.12 368.268 332.12H366.543ZM375.608 322.46H372.278V321.5H380.048V322.46H376.718V332H375.608V322.46ZM381.7 321.5H386.8C387.57 321.5 388.185 321.72 388.645 322.16C389.115 322.59 389.35 323.16 389.35 323.87V324.965C389.35 325.495 389.18 325.965 388.84 326.375C388.5 326.775 388.045 327.06 387.475 327.23V327.245C387.775 327.405 388.045 327.66 388.285 328.01C388.535 328.36 388.725 328.755 388.855 329.195L389.68 332H388.54L387.715 329.195C387.575 328.705 387.33 328.31 386.98 328.01C386.64 327.71 386.265 327.56 385.855 327.56H382.81V332H381.7V321.5ZM386.41 326.57C386.96 326.57 387.4 326.425 387.73 326.135C388.07 325.835 388.24 325.445 388.24 324.965V323.81C388.24 323.41 388.105 323.09 387.835 322.85C387.565 322.61 387.21 322.49 386.77 322.49H382.81V326.57H386.41ZM394.219 327.965L390.349 321.5H391.549L394.774 326.96L397.999 321.5H399.199L395.329 327.965V332H394.219V327.965ZM405.512 332C405.202 332 404.962 331.915 404.792 331.745C404.622 331.565 404.537 331.32 404.537 331.01V321.5H411.587V322.46H405.647V326.15H411.137V327.11H405.647V331.04H411.587V332H405.512ZM416.291 326.645L412.721 321.5H413.966L416.921 325.73L419.876 321.5H421.106L417.536 326.645L421.256 332H420.011L416.921 327.545L413.816 332H412.571L416.291 326.645ZM422.701 321.5H427.786C428.566 321.5 429.191 321.72 429.661 322.16C430.141 322.6 430.381 323.18 430.381 323.9V325.445C430.381 326.215 430.126 326.84 429.616 327.32C429.106 327.79 428.436 328.025 427.606 328.025H423.811V332H422.701V321.5ZM427.576 327.035C428.086 327.035 428.496 326.89 428.806 326.6C429.116 326.3 429.271 325.905 429.271 325.415V323.87C429.271 323.46 429.131 323.13 428.851 322.88C428.581 322.62 428.216 322.49 427.756 322.49H423.811V327.035H427.576ZM433.036 332C432.726 332 432.486 331.915 432.316 331.745C432.146 331.565 432.061 331.32 432.061 331.01V321.5H439.111V322.46H433.171V326.15H438.661V327.11H433.171V331.04H439.111V332H433.036ZM441.055 321.5H446.155C446.925 321.5 447.54 321.72 448 322.16C448.47 322.59 448.705 323.16 448.705 323.87V324.965C448.705 325.495 448.535 325.965 448.195 326.375C447.855 326.775 447.4 327.06 446.83 327.23V327.245C447.13 327.405 447.4 327.66 447.64 328.01C447.89 328.36 448.08 328.755 448.21 329.195L449.035 332H447.895L447.07 329.195C446.93 328.705 446.685 328.31 446.335 328.01C445.995 327.71 445.62 327.56 445.21 327.56H442.165V332H441.055V321.5ZM445.765 326.57C446.315 326.57 446.755 326.425 447.085 326.135C447.425 325.835 447.595 325.445 447.595 324.965V323.81C447.595 323.41 447.46 323.09 447.19 322.85C446.92 322.61 446.565 322.49 446.125 322.49H442.165V326.57H445.765ZM450.961 321.5H452.071V332H450.961V321.5ZM455.595 332C455.285 332 455.045 331.915 454.875 331.745C454.705 331.565 454.62 331.32 454.62 331.01V321.5H461.67V322.46H455.73V326.15H461.22V327.11H455.73V331.04H461.67V332H455.595ZM463.614 321.5H464.664L470.484 330.245V321.5H471.564V332H470.514L464.694 323.315V332H463.614V321.5ZM477.076 332.12C476.406 332.12 475.811 331.96 475.291 331.64C474.781 331.32 474.381 330.875 474.091 330.305C473.811 329.725 473.671 329.06 473.671 328.31V325.19C473.671 324.44 473.811 323.775 474.091 323.195C474.381 322.615 474.786 322.17 475.306 321.86C475.836 321.54 476.446 321.38 477.136 321.38H478.726C479.376 321.38 479.946 321.52 480.436 321.8C480.936 322.08 481.321 322.475 481.591 322.985C481.871 323.495 482.011 324.08 482.011 324.74H480.931C480.931 324.03 480.726 323.46 480.316 323.03C479.916 322.59 479.386 322.37 478.726 322.37H477.136C476.426 322.37 475.856 322.63 475.426 323.15C474.996 323.66 474.781 324.34 474.781 325.19V328.31C474.781 329.16 474.991 329.845 475.411 330.365C475.831 330.875 476.386 331.13 477.076 331.13H478.696C479.376 331.13 479.921 330.89 480.331 330.41C480.751 329.93 480.961 329.3 480.961 328.52H482.041C482.041 329.23 481.901 329.86 481.621 330.41C481.341 330.95 480.946 331.37 480.436 331.67C479.936 331.97 479.356 332.12 478.696 332.12H477.076ZM484.848 332C484.538 332 484.298 331.915 484.128 331.745C483.958 331.565 483.873 331.32 483.873 331.01V321.5H490.923V322.46H484.983V326.15H490.473V327.11H484.983V331.04H490.923V332H484.848Z" fill="black"/>
<rect x="328" y="198" width="10" height="4" fill="#216CE0"/>
<rect x="190" y="289" width="10" height="4" fill="#216CE0"/>
<rect x="308" y="325" width="10" height="4" fill="#216CE0"/>
<rect x="171" y="442" width="10" height="4" fill="#216CE0"/>
<rect x="132" y="552" width="10" height="4" fill="#216CE0"/>
<path d="M552.039 130C552.039 142.15 541.957 152 529.52 152C517.082 152 507 142.15 507 130C507 117.85 517.082 108 529.52 108C541.957 108 552.039 117.85 552.039 130Z" fill="#FFB703"/>
<path fill-rule="evenodd" clip-rule="evenodd" d="M529.52 150.075C540.937 150.075 550.115 141.045 550.115 130C550.115 118.955 540.937 109.925 529.52 109.925C518.103 109.925 508.925 118.955 508.925 130C508.925 141.045 518.103 150.075 529.52 150.075ZM529.52 152C541.957 152 552.039 142.15 552.039 130C552.039 117.85 541.957 108 529.52 108C517.082 108 507 117.85 507 130C507 142.15 517.082 152 529.52 152Z" fill="#003554"/>
<path fill-rule="evenodd" clip-rule="evenodd" d="M535.005 143.801C543.093 143.801 549.576 137.4 549.576 129.596C549.576 121.791 543.093 115.391 535.005 115.391C526.917 115.391 520.435 121.791 520.435 129.596C520.435 137.4 526.917 143.801 535.005 143.801ZM535.005 145.725C544.115 145.725 551.5 138.504 551.5 129.596C551.5 120.688 544.115 113.466 535.005 113.466C525.895 113.466 518.51 120.688 518.51 129.596C518.51 138.504 525.895 145.725 535.005 145.725Z" fill="#003554"/>
<path d="M541.376 130.019C541.376 135.93 536.482 140.721 530.444 140.721C524.406 140.721 519.511 135.93 519.511 130.019C519.511 124.109 524.406 119.318 530.444 119.318C536.482 119.318 541.376 124.109 541.376 130.019Z" fill="#003554"/>
<path d="M530.228 125.207H535.24C536.057 125.207 536.713 125.427 537.207 125.867C537.71 126.308 537.961 126.887 537.961 127.606V128.549C537.961 129.016 537.826 129.424 537.557 129.775C537.297 130.116 536.915 130.377 536.412 130.556V130.583C536.699 130.772 536.915 130.987 537.059 131.23C537.211 131.472 537.359 131.809 537.503 132.24L538.258 134.639H536.331L535.617 132.402C535.5 132.016 535.338 131.728 535.132 131.54C534.925 131.351 534.669 131.257 534.364 131.257H532.087V134.639H530.228V125.207ZM534.889 129.653C535.267 129.653 535.563 129.555 535.779 129.357C535.994 129.15 536.102 128.885 536.102 128.562V127.686C536.102 127.426 536.021 127.219 535.859 127.067C535.698 126.905 535.482 126.824 535.213 126.824H532.087V129.653H534.889Z" fill="#E9EBF8"/>
<path d="M524.215 134.746C523.227 134.746 522.454 134.472 521.898 133.925C521.341 133.368 521.062 132.595 521.062 131.607H522.895C522.895 132.074 523.011 132.442 523.245 132.712C523.487 132.972 523.82 133.103 524.242 133.103H525.737C526.133 133.103 526.452 133.022 526.694 132.86C526.946 132.689 527.071 132.465 527.071 132.186V131.728C527.071 131.288 526.748 131.014 526.101 130.906L523.622 130.489C522.814 130.354 522.199 130.098 521.776 129.721C521.363 129.335 521.157 128.845 521.157 128.252V127.498C521.157 127.022 521.282 126.604 521.534 126.245C521.794 125.876 522.158 125.594 522.625 125.396C523.101 125.198 523.649 125.099 524.269 125.099H525.791C526.375 125.099 526.892 125.221 527.341 125.463C527.79 125.706 528.136 126.047 528.378 126.487C528.63 126.918 528.756 127.421 528.756 127.996H526.923C526.923 127.619 526.82 127.318 526.613 127.094C526.407 126.86 526.133 126.743 525.791 126.743H524.269C523.892 126.743 523.586 126.824 523.353 126.986C523.128 127.147 523.016 127.363 523.016 127.632V127.996C523.016 128.445 523.326 128.724 523.946 128.832L526.411 129.263C527.229 129.406 527.853 129.662 528.284 130.031C528.715 130.39 528.931 130.857 528.931 131.432V132.321C528.931 132.797 528.796 133.219 528.526 133.588C528.266 133.956 527.898 134.243 527.422 134.45C526.946 134.648 526.393 134.746 525.764 134.746H524.215Z" fill="#E9EBF8"/>
</svg>
